<?xml version="1.0" encoding="UTF-8" standalone="no"?>
<!-- Created with Inkscape (http://www.inkscape.org/) -->

<svg
   xmlns:osb="http://www.openswatchbook.org/uri/2009/osb"
   xmlns:dc="http://purl.org/dc/elements/1.1/"
   xmlns:cc="http://creativecommons.org/ns#"
   xmlns:rdf="http://www.w3.org/1999/02/22-rdf-syntax-ns#"
   xmlns:svg="http://www.w3.org/2000/svg"
   xmlns="http://www.w3.org/2000/svg"
   xmlns:sodipodi="http://sodipodi.sourceforge.net/DTD/sodipodi-0.dtd"
   xmlns:inkscape="http://www.inkscape.org/namespaces/inkscape"
   width="277.33679mm"
   height="112.31641mm"
   viewBox="0 0 277.33679 112.31642"
   version="1.1"
   id="svg4946"
   inkscape:version="0.92.3 (2405546, 2018-03-11)"
   sodipodi:docname="logo.svg">
  <defs
     id="defs4940">
    <linearGradient
       id="linearGradient2263"
       osb:paint="solid">
      <stop
         style="stop-color:#ff5aff;stop-opacity:1;"
         offset="0"
         id="stop2261" />
    </linearGradient>
    <clipPath
       clipPathUnits="userSpaceOnUse"
       id="clipPath366">
      <rect
         style="fill:#ddebf6;fill-opacity:1;stroke-width:57.54309845"
         id="rect368"
         width="35209.016"
         height="11499.719"
         x="2023.0984"
         y="-24809.578"
         transform="scale(1,-1)" />
    </clipPath>
  </defs>
  <sodipodi:namedview
     id="base"
     pagecolor="#ffffff"
     bordercolor="#666666"
     borderopacity="1.0"
     inkscape:pageopacity="0.0"
     inkscape:pageshadow="2"
     inkscape:zoom="0.70000001"
     inkscape:cx="440.82626"
     inkscape:cy="105.42039"
     inkscape:document-units="mm"
     inkscape:current-layer="layer2"
     showgrid="false"
     inkscape:window-width="1920"
     inkscape:window-height="1057"
     inkscape:window-x="-8"
     inkscape:window-y="-8"
     inkscape:window-maximized="1"
     inkscape:pagecheckerboard="true"
     showborder="false" />
  <metadata
     id="metadata4943">
    <rdf:RDF>
      <cc:Work
         rdf:about="">
        <dc:format>image/svg+xml</dc:format>
        <dc:type
           rdf:resource="http://purl.org/dc/dcmitype/StillImage" />
        <dc:title />
      </cc:Work>
    </rdf:RDF>
  </metadata>
  <g
     inkscape:groupmode="layer"
     id="layer2"
     inkscape:label="Layer 0"
     style="display:inline;opacity:1"
     transform="translate(-15.387961,85.858292)">
    <path
       id="rect2294"
       transform="matrix(0.26458333,0,0,0.26458333,0,-111.91379)"
       style="opacity:1;fill:#ffffff;fill-opacity:0.98492462;stroke-width:4.29572344"
       d="m 260.80273,98.490234 c -0.17217,-0.01927 -0.35399,-0.01675 -0.54687,0.0078 l -0.01,0.002 c -0.77157,0.09804 -1.72254,0.549354 -2.98437,1.392578 -1.00326,0.637038 -2.79185,0.659508 -5.07227,-0.0332 -0.45613,-0.112479 -0.94547,0.186298 -1.58398,0.935548 -0.51695,0.59961 -1.03347,1.16142 -1.18555,1.23633 -0.12193,0.0751 -0.75119,0.97654 -1.35937,1.98828 -1.12495,1.76127 -2.31954,2.84375 -3.20117,2.84375 -0.63849,0 -2.61151,1.31554 -3.25,2.21484 -0.33449,0.44969 -0.72976,0.7793 -0.91211,0.7793 -0.21287,0 -1.51931,1.09639 -2.91797,2.44531 -1.42913,1.34907 -2.77154,2.42969 -2.98438,2.42969 -0.21286,0 -0.73166,0.25864 -1.12695,0.5957 -0.57777,0.44969 -0.75391,0.94535 -0.75391,1.95704 0,1.01186 -0.34088,1.8661 -1.43554,3.58984 -0.79063,1.27414 -1.51632,2.35924 -1.60743,2.4707 -0.0914,0.11248 -0.36209,0.68137 -0.60547,1.31836 -0.27365,0.59961 -0.97596,1.42066 -1.58398,1.75782 -0.57767,0.33737 -1.57945,1.47031 -2.1875,2.51953 -0.60807,1.01187 -1.22214,1.90745 -1.34375,1.98242 -0.12193,0.0751 -0.87834,1.1959 -1.69922,2.54492 -0.82093,1.34905 -2.09143,3.11402 -2.85156,3.9375 -2.43243,2.62317 -9.00897,11.05662 -9.89063,12.66797 -0.48653,0.86183 -2.06398,3.03522 -3.52343,4.83398 -1.45945,1.76122 -3.46537,4.57225 -4.46875,6.1836 -2.34122,3.85978 -6.11904,9.25108 -7.94336,11.34961 -0.79053,0.93679 -2.75765,3.62903 -4.36914,6.02734 -1.61147,2.36079 -3.194,4.61124 -3.49805,5.02344 -0.3041,0.37481 -0.90829,1.24566 -1.33398,1.88281 -3.37491,5.32114 -5.57766,8.42383 -5.91211,8.42383 -0.21287,0 -0.56644,0.45393 -0.7793,0.97851 -0.24329,0.52455 -1.3457,2.02478 -2.4707,3.29883 -1.125,1.31155 -2.93972,3.82238 -4.00391,5.6211 -1.09459,1.7987 -2.55849,3.74767 -3.25781,4.38476 -0.6993,0.63704 -1.49894,1.57662 -1.74219,2.13867 -0.27368,0.56218 -1.35573,1.94419 -2.41992,3.06836 -1.125,1.16167 -2.28247,2.81123 -2.67774,3.74805 -0.3953,0.9368 -1.64742,2.95581 -2.80273,4.49219 -1.12499,1.53646 -2.85431,3.97799 -3.79688,5.43945 -2.15877,3.26016 -4.62096,6.44469 -6.01953,7.71875 -0.57766,0.52455 -1.42477,1.86801 -1.88086,2.99219 -1.15541,2.77299 -7.12463,11.47382 -11.25976,16.38281 -0.82093,0.93689 -1.45899,1.87277 -1.45899,2.09766 0,0.22499 -0.4879,1.1143 -1.03515,2.01367 -0.57777,0.89936 -1.09154,1.73289 -1.15235,1.88281 -0.0606,0.14944 -0.60283,0.74652 -1.21093,1.30859 -0.88176,0.78697 -1.15235,1.30995 -1.15235,2.17188 0,0.59951 -0.13198,1.08594 -0.31445,1.08594 -0.15205,0 -0.29883,0.2647 -0.29883,0.56445 0,0.33747 -0.22156,0.67462 -0.46484,0.78711 -0.24318,0.11248 -0.78803,1.0123 -1.24414,1.94922 -0.45613,0.97427 -1.41956,2.4334 -2.17969,3.25781 -0.72971,0.8244 -1.67699,2.09858 -2.07227,2.81055 -0.3953,0.71191 -1.27054,2.14215 -1.93945,3.1914 -0.66889,1.01166 -1.86375,2.95368 -2.6543,4.30274 -0.79052,1.34906 -2.73226,4.46197 -4.34375,6.97265 -4.71283,7.4197 -5.86924,9.29206 -7.41992,12.40235 -3.77027,7.53212 -7.481107,14.35156 -7.785154,14.35156 -0.121626,0 -0.297434,0.48619 -0.388672,1.08594 -0.121625,0.59961 -0.547818,1.43183 -1.003906,1.80664 -1.581079,1.31149 -3.715846,4.34079 -4.384766,6.25195 -0.364914,1.04926 -0.849717,2.39618 -1.0625,3.0332 -0.608077,1.68628 -1.060547,4.42354 -1.060547,6.25977 0,2.43575 0.968053,3.55859 6.076172,6.78125 2.432428,1.53647 5.656603,3.59402 7.146483,4.56836 2.58446,1.68533 2.79466,1.76735 3.98047,1.39258 0.94257,-0.29957 1.55216,-0.29852 2.58594,0.0762 2.37162,0.89937 6.81165,1.0843 10.15625,0.44727 1.67229,-0.29976 4.19203,-0.74598 5.62109,-0.97071 6.84121,-1.12412 6.29766,-0.93696 8.36524,-2.81054 0.33448,-0.29976 2.97282,-1.31359 5.86132,-2.21289 2.91893,-0.9368 5.63768,-1.98079 6.09375,-2.35547 0.45613,-0.37482 1.91217,-0.86894 3.25,-1.09375 3.04054,-0.52455 5.25942,-1.6092 13.89453,-6.85547 4.5,-2.69808 7.22868,-4.1543 7.86719,-4.1543 0.57767,0 1.28274,-0.30834 1.61719,-0.7207 0.45613,-0.52455 1.4632,-0.8658 3.43945,-1.20313 2.61486,-0.41225 2.94885,-0.55975 4.83399,-2.24609 1.64189,-1.46155 2.4014,-1.8714 4.19531,-2.24609 2.3108,-0.52455 4.52946,-0.55947 6.29297,-0.1504 0.88166,0.18754 2.06568,-0.14789 5.83594,-1.68359 6.71949,-2.73556 11.67595,-3.59853 24.68945,-4.31055 l 10.13086,-0.5625 2.21289,1.3086 c 1.18575,0.712 2.46336,1.61551 2.82812,1.99023 0.39532,0.44969 1.33321,0.82459 2.42774,1.01172 1.00338,0.14895 1.98164,0.34249 2.16406,0.45508 0.88175,0.37481 10.40426,13.29753 11.31641,15.24609 0.82093,1.7987 1.14731,3.33403 2.08984,9.9668 l 1.12695,7.83398 -0.66992,8.91211 c -0.63848,8.50642 -0.73083,9.14829 -2.00781,13.79493 -5.98977,21.88438 -5.92429,21.70195 -6.71484,22.22656 -0.24325,0.18755 -0.60968,1.00324 -0.76172,1.86523 -0.15243,0.8244 -0.66588,2.25102 -1.15235,3.15039 -1.94592,3.59741 -9.37184,17.57712 -11.22656,21.09961 -1.06419,2.09754 -3.06033,5.17042 -4.45898,6.93164 -1.7331,2.21092 -2.58431,3.55613 -2.73633,4.41797 -0.15243,0.89936 -0.55677,1.50289 -1.46875,2.21484 -0.69921,0.52455 -4.10716,4.35488 -7.54297,8.43946 -3.46622,4.12197 -7.02058,8.00869 -7.90234,8.7207 -0.91217,0.67447 -2.19047,1.80045 -2.85938,2.4375 -0.66879,0.63608 -1.8259,1.72199 -2.58594,2.39649 -0.76012,0.67447 -3.06524,2.81774 -5.13281,4.6914 -2.03715,1.91115 -4.83524,4.15369 -6.14258,5.01563 -1.7027,1.08675 -2.46626,1.79687 -2.58789,2.39648 -0.12162,0.56218 -0.48504,0.94013 -1.00195,1.05274 -1.06419,0.29967 -2.1569,1.04898 -5.83594,4.04687 -1.70271,1.42399 -3.47081,2.77519 -3.89648,3 -0.42572,0.26234 -1.00089,0.70763 -1.24414,1.04492 -0.57767,0.78697 -3.55759,2.96094 -4.01368,2.96094 -0.18241,0 -1.02954,0.40761 -1.88085,0.89453 -7.44932,4.3469 -8.48032,4.83942 -11.2168,5.28906 -0.79053,0.14945 -2.28543,0.86841 -3.34961,1.54297 -1.03378,0.71191 -2.64447,1.71717 -3.55664,2.2793 -0.91216,0.56102 -2.43744,1.53836 -3.34961,2.21289 -1.7331,1.23662 -4.46701,2.05989 -10.94336,3.33398 -1.7635,0.33699 -3.86544,0.74819 -4.7168,0.93555 -4.83445,1.04926 -6.78256,1.50042 -7.60351,1.65039 -0.48645,0.11248 -2.06119,0.44634 -3.49024,0.7461 -2.09797,0.48731 -3.22165,0.5306 -5.92773,0.1914 -3.9526,-0.44968 -7.21243,-0.97195 -8.67188,-1.45898 -0.57776,-0.14945 -1.82415,-0.41462 -2.73632,-0.56446 -0.91207,-0.14944 -1.97306,-0.48737 -2.33789,-0.7871 -1.06408,-0.82517 -2.82063,-2.02022 -5.22266,-3.55665 -1.246628,-0.82439 -2.460738,-1.69469 -2.734376,-1.95703 -0.273676,-0.26233 -1.83273,-1.30504 -3.47461,-2.27929 -3.344587,-2.0236 -3.096554,-1.76051 -7.626953,-8.01758 -1.793922,-2.51072 -3.531027,-4.57617 -3.804687,-4.57617 -0.72971,0 -1.244141,-0.74961 -1.244141,-1.79883 0,-1.3115 -2.49736,-5.80271 -5.355469,-9.625 -2.432439,-3.29766 -2.519901,-3.49319 -2.884765,-6.00391 -0.212859,-1.4989 -1.000479,-4.26673 -1.791016,-6.36523 -0.760116,-2.06099 -1.735585,-4.68832 -2.130859,-5.8125 -1.124992,-3.0728 -2.671884,-6.70194 -3.796875,-8.83789 -1.125003,-2.09851 -3.162318,-3.61008 -4.013672,-2.93555 -0.668893,0.52455 -3.202817,8.40317 -3.050781,9.52734 0.09143,0.52455 0.45541,2.09518 0.820312,3.55664 0.395312,1.42403 0.797446,3.70763 0.888672,5.05665 0.121625,1.34904 0.514004,3.15534 0.878906,4.05468 0.395312,0.89936 0.819538,2.57663 1.001953,3.73828 0.364914,2.39828 1.036463,4.95383 2.769532,10.3125 1.124991,3.59738 1.153095,3.78388 0.970703,6.93164 l -0.175782,3.25782 2.007813,5.0664 c 3.283771,8.2441 6.164642,13.4917 8.505859,15.55274 0.456129,0.41215 1.7394,1.56626 2.833985,2.57812 2.006744,1.83618 6.745468,5.51281 9.816406,7.61133 0.912163,0.59951 2.158616,1.45301 2.736328,1.86523 2.614859,1.79871 5.206058,2.74102 9.037107,3.26563 11.49323,1.57382 10.5111,1.5338 14.70703,0.44727 3.3142,-0.8244 4.46976,-0.96956 8.51368,-0.89454 4.10472,0.0751 4.92652,-0.004 6.78125,-0.7539 1.12499,-0.44968 2.61428,-0.82227 3.2832,-0.82227 0.91216,0 1.43734,-0.22797 1.92383,-0.90234 0.60807,-0.8244 0.85062,-0.85491 2.64453,-0.70508 1.70268,0.18754 2.29993,0.0333 4.51953,-0.97851 1.39864,-0.67458 2.98627,-1.46164 3.47266,-1.79883 1.1554,-0.74934 2.39812,-1.53031 5.62109,-3.44141 2.24999,-1.31154 7.03047,-4.35409 15.08789,-9.52539 1.15542,-0.74953 2.88667,-1.64318 3.79883,-1.98047 0.91216,-0.33698 3.25971,-1.87888 5.29687,-3.49023 3.07094,-2.47328 7.32047,-5.28125 7.95899,-5.28125 0.54735,0 4.80121,-3.03784 8.7539,-6.18555 4.07432,-3.2977 8.75222,-7.71905 9.81641,-9.29297 0.24329,-0.33698 1.16792,-0.85607 2.08008,-1.19336 1.15541,-0.41225 2.00358,-1.04889 2.97656,-2.24804 0.72971,-0.93699 1.60973,-1.69141 1.97461,-1.69141 0.45603,0 0.64648,-0.22798 0.64648,-0.90235 0,-0.71198 0.26759,-1.01055 1.39258,-1.53515 0.79053,-0.37482 3.0605,-2.27918 5.09766,-4.30274 5.04719,-5.02143 6.57043,-6.85765 10.37109,-12.66601 0.97297,-1.4989 2.01279,-2.59258 2.89453,-3.11719 0.76003,-0.44968 2.46185,-2.02026 3.83008,-3.55664 1.91555,-2.0985 2.73348,-3.37414 3.61524,-5.47266 0.91225,-2.21091 1.88552,-3.63105 4.86523,-7.22851 4.04392,-4.8715 5.78531,-7.87305 7.12305,-12.29492 0.88175,-2.84699 1.09257,-3.15014 7.66015,-11.01953 1.94594,-2.32332 2.51743,-3.3306 4.12891,-7.30274 1.03378,-2.54815 2.86191,-6.89596 4.07813,-9.66797 1.277,-2.96045 2.79429,-7.20361 3.61523,-10.16406 1.15543,-4.08454 1.70735,-5.53699 2.98437,-7.56055 1.30752,-2.13599 1.73574,-3.25558 2.76954,-7.30273 0.63848,-2.62311 1.2759,-5.44317 1.36718,-6.26758 0.12193,-0.8245 0.33121,-2.5849 0.51368,-3.89648 0.18241,-1.64883 0.73029,-3.44417 1.64257,-5.58008 1.36832,-3.11029 1.36719,-3.18501 1.36719,-6.85742 0,-2.28588 0.1194,-3.75015 0.33203,-3.9375 0.24325,-0.14895 0.26969,-0.97685 0.14844,-2.36328 -0.12193,-1.1617 -0.32831,-4.03956 -0.48047,-6.4004 -0.12193,-2.36079 -0.45689,-5.25078 -0.73047,-6.375 -0.27367,-1.12413 -0.48828,-2.6623 -0.48828,-3.44921 0,-1.04927 -0.60845,-2.88472 -2.18945,-6.70704 -1.76351,-4.23445 -2.46069,-5.57784 -3.64649,-6.81445 -0.82093,-0.86202 -2.86063,-3.22877 -4.59375,-5.21484 -1.7027,-2.0235 -3.24641,-3.67188 -3.39843,-3.67188 -1.03378,0 -5.75428,-2.28873 -6.11915,-2.92578 -0.57774,-1.01166 -1.94288,-1.8702 -4.52734,-2.76953 -1.82433,-0.63704 -2.64222,-0.71503 -5.65234,-0.49023 -3.01015,0.18754 -3.70978,0.11838 -4.65235,-0.40625 -0.97307,-0.59961 -1.34559,-0.64115 -3.38281,-0.18946 -2.15878,0.44968 -2.33726,0.41711 -3.1582,-0.33203 -0.88175,-0.74953 -0.94455,-0.75944 -3.58985,-0.1582 -1.45943,0.33698 -3.27697,0.75437 -4.03711,0.9043 -0.76009,0.14942 -2.25502,0.51707 -3.3496,0.77929 -1.09463,0.26234 -2.43428,0.45641 -2.95118,0.41406 -0.54725,-0.0385 -1.36813,-0.0708 -1.82422,-0.10742 -2.24997,-0.11248 -6.65888,1.35238 -9.42578,3.07617 -1.2162,0.74954 -3.52317,0.93427 -4.70898,0.37305 -0.85135,-0.41225 -2.03633,-0.0429 -7.84375,2.2793 -2.67558,1.08675 -4.92895,1.7661 -6.44922,1.91601 -1.27701,0.14895 -2.76409,0.48745 -3.3418,0.78711 -2.49323,1.38662 -5.81074,2.84375 -6.44921,2.84375 -0.39532,0 -1.63962,0.45384 -2.79493,0.97852 -1.15541,0.52455 -2.5805,1.12681 -3.1582,1.35156 -0.57767,0.225 -1.39855,0.59891 -1.82422,0.86133 -0.76011,0.48721 -4.56244,1.49153 -12.92383,3.36523 -2.34121,0.52455 -5.20676,1.20228 -6.39258,1.50196 -1.15538,0.29975 -5.13344,1.24352 -8.8125,2.10547 -3.67902,0.82343 -7.17424,1.75138 -7.75195,2.01367 -1.82431,0.93679 -7.65646,2.21359 -9.63281,2.13867 -2.55405,-0.11248 -2.77413,-0.0667 -6.66602,0.1582 -2.58446,0.14895 -3.43839,0.10601 -3.68164,-0.30664 -0.18243,-0.26234 -0.42524,-1.68892 -0.54687,-3.15039 l -0.18164,-2.66211 2.03906,-3.70508 c 1.09459,-2.02359 2.46247,-4.30366 3.00977,-5.01562 1.27702,-1.68635 3.61381,-5.9252 4.61718,-8.39844 0.42573,-1.04926 1.44002,-3.1112 2.23047,-4.53515 0.79053,-1.46151 1.93961,-3.62866 2.57813,-4.86524 0.63848,-1.23661 1.94219,-3.27083 2.88476,-4.54492 0.94257,-1.23658 1.94901,-2.84464 2.22266,-3.55664 0.3041,-0.71191 1.18992,-2.43601 1.98047,-3.89649 1.30743,-2.36084 1.5807,-2.65992 3.00976,-3.18359 2.12838,-0.78697 2.88609,-1.80648 3.70703,-4.8418 0.36492,-1.38646 1.24514,-3.63759 1.91407,-4.94922 3.31419,-6.40788 4.56351,-8.50418 5.23242,-8.8789 0.42572,-0.22451 0.97827,-0.81725 1.25195,-1.3418 0.27368,-0.48712 0.7805,-1.01646 1.17578,-1.1289 0.45604,-0.14896 0.79048,-0.58963 0.91211,-1.22657 0.0914,-0.5996 1.00527,-2.14898 2.03907,-3.49804 4.31754,-5.62004 6.05526,-7.75543 7.27148,-8.80469 0.6993,-0.63705 1.78838,-1.87369 2.39648,-2.81055 1.33784,-2.06104 1.54967,-2.28067 3.83008,-4.1543 1.00337,-0.82439 2.21944,-1.94959 2.73633,-2.51171 0.51695,-0.56208 1.40276,-1.45587 1.98047,-1.98047 0.57767,-0.56218 2.13118,-2.2167 3.4082,-3.64063 1.61149,-1.83624 2.66871,-2.7306 3.39844,-2.91797 1.36824,-0.29975 2.40213,-1.58498 3.375,-4.0957 0.39531,-1.08675 0.94239,-2.05166 1.18555,-2.16406 0.48653,-0.225 3.83007,-5.29018 3.83007,-5.77735 0,-0.89936 2.10256,-3.25277 3.89649,-4.37695 2.09797,-1.31154 5.68892,-3.86833 9.18555,-6.56641 1.09458,-0.82449 3.03631,-2.77187 4.34375,-4.3457 1.30742,-1.53646 2.62098,-2.80859 2.89453,-2.80859 0.66889,0 3.61006,-1.30942 4.12695,-1.83399 0.21286,-0.22499 0.63853,-1.04938 0.91211,-1.79882 0.27367,-0.78697 1.00627,-1.82891 1.58398,-2.35352 0.57767,-0.52455 1.67235,-1.98925 2.46289,-3.30078 0.76003,-1.27414 1.52183,-2.32813 1.67383,-2.32813 0.12193,0 0.88526,-0.56166 1.67578,-1.23633 1.18574,-1.04924 7.69307,-5.6937 17.66602,-12.70117 0.79062,-0.56121 1.84928,-1.01953 2.39648,-1.01953 0.60818,-0.0385 1.69897,-0.62971 2.88477,-1.5664 2.28039,-1.79875 0.768,-1.84199 14.63281,0.40625 1.15542,0.18754 2.33767,0.60277 2.61133,0.90234 0.94257,1.04926 1.63831,0.63546 3.52344,-2.0625 3.4054,-4.90899 3.80469,-5.61229 3.80469,-6.92383 0,-0.89936 0.32923,-1.69269 1.21093,-2.9668 0.66899,-0.93679 1.22657,-1.83253 1.22657,-1.98242 0,-0.14944 -0.70726,-2.70528 -1.5586,-5.70312 -0.85144,-2.99784 -1.63705,-6.48144 -1.78906,-7.79297 -0.15235,-1.31149 -0.30442,-2.43322 -0.36524,-2.4707 -0.0306,-0.0385 -0.88166,-0.78864 -1.82421,-1.65039 -1.42911,-1.31155 -1.76399,-1.83477 -1.91602,-2.95899 -0.39531,-2.8854 -1.09599,-4.60909 -1.94727,-4.83398 -2.64528,-0.71191 -3.22576,-1.12588 -3.4082,-2.4375 -0.0914,-0.71191 -0.39132,-1.83292 -0.69531,-2.54493 -0.30399,-0.67447 -0.73245,-1.98892 -0.94531,-2.92578 -0.45613,-1.87367 -0.51441,-1.45483 1.21875,-7.11328 0.91216,-2.92292 0.88032,-4.76677 -0.0918,-5.853517 -0.41045,-0.449705 -0.84285,-0.705849 -1.35938,-0.763672 z M 403.91211,184.8457 c -2.67568,0.14945 -7.63171,1.20288 -8.78711,1.83985 -0.51696,0.29975 -3.04033,1.41742 -11.52344,5.08984 -2.9797,1.31153 -9.51958,5.28641 -9.73242,5.96094 -0.0914,0.29975 -0.46238,0.56445 -0.79687,0.56445 -1.06414,0 -5.40516,2.92116 -7.68555,5.20703 -1.21622,1.19924 -3.49314,3.22166 -5.07422,4.53321 -1.58104,1.27413 -3.53293,2.92509 -4.29297,3.5996 -0.79062,0.71191 -1.51317,1.26758 -1.63476,1.26758 -0.15243,0 -0.80073,0.56976 -1.5,1.24414 -0.6993,0.71201 -1.90844,1.75823 -2.75977,2.32032 -3.01014,2.13598 -5.322,4.27372 -9.88281,9.07031 -1.42912,1.4615 -3.13075,3.18596 -3.83008,3.74805 -0.66899,0.56217 -2.92742,3.25858 -5.02539,5.99414 -5.13852,6.74514 -5.4375,7.2327 -5.4375,8.20703 0,0.48711 -0.12131,0.89453 -0.27344,0.89453 -0.66899,0 -2.31202,2.21416 -3.77148,5.09961 -3.34461,6.67026 -3.16216,6.07049 -3.375,10.08008 -0.12193,2.02357 -0.27122,3.78953 -0.33203,3.93945 -0.0606,0.11248 0.18188,0.90012 0.54687,1.72461 1.94585,4.4593 2.64453,6.18191 2.64453,6.55664 0,0.22499 -0.24557,0.85235 -0.58008,1.37695 -0.30398,0.56198 -0.99378,2.02896 -1.54101,3.26563 -0.54726,1.23657 -1.73933,3.85963 -2.6211,5.8457 -0.91216,2.02356 -1.64062,3.74661 -1.64062,3.89649 0,0.11245 -0.39739,0.93695 -0.85352,1.79882 -0.48644,0.86183 -1.39967,2.84838 -2.00781,4.38477 -0.63849,1.53647 -1.6402,3.62652 -2.1875,4.67578 -0.57767,1.01187 -1.12253,2.29567 -1.24414,2.82031 -0.0914,0.52455 -0.33412,1.19252 -0.54687,1.49219 -0.21287,0.29975 -0.46347,0.98323 -0.55469,1.50781 -0.0914,0.52455 -0.78554,3.02764 -1.57617,5.61328 -0.76012,2.58568 -1.43138,4.8318 -1.49219,5.05664 -0.24329,1.16167 -1.45411,5.58983 -2.12305,7.80079 -0.60798,1.94858 -0.79492,3.22097 -0.79492,5.50585 0,1.61135 -0.12101,3.3351 -0.27344,3.82227 -0.15243,0.48711 -0.62981,2.50611 -1.08594,4.49219 -0.94254,4.12201 -0.97639,3.83578 0.78711,15.11523 0.18237,1.23657 0.38915,2.72912 0.48047,3.36524 0.24325,1.49895 5.3798,10.49384 6.74805,11.73047 0.60798,0.56217 2.1362,2.32258 3.38281,3.89648 2.25002,2.84796 2.34371,2.92479 5.50586,4.23633 3.13176,1.27414 3.40399,1.31054 7.75196,1.31055 2.49321,0 5.83893,-0.22172 7.41992,-0.52149 1.58104,-0.29975 4.00284,-0.63914 5.37109,-0.78906 1.45934,-0.11248 3.62316,-0.71444 5.17383,-1.35156 1.45934,-0.59952 5.0141,-1.9439 7.8418,-2.99219 8.42228,-3.0728 11.7321,-4.49948 13.83007,-5.96094 1.09462,-0.74953 5.14744,-3.51946 8.97852,-6.14258 5.26013,-3.55993 7.71787,-5.47537 9.72461,-7.61133 1.52024,-1.53642 3.34841,-3.14443 4.07812,-3.55664 0.72964,-0.41224 1.70517,-1.19572 2.13086,-1.75781 0.42562,-0.52455 1.90994,-2.11229 3.3086,-3.42383 1.39861,-1.34907 3.92619,-3.77305 5.6289,-5.42187 1.73311,-1.64883 4.44626,-4.35313 6.02735,-6.00196 1.61132,-1.64877 4.58869,-4.68701 6.65625,-6.74804 5.44255,-5.4336 8.25997,-8.50339 9.11132,-9.96485 0.42562,-0.67466 2.01304,-2.84792 3.53321,-4.83398 2.37161,-3.03528 3.0424,-4.23108 4.77539,-8.39063 1.12494,-2.6231 1.94671,-4.95325 1.85547,-5.14062 -0.0915,-0.18716 -0.7393,-0.33008 -1.40821,-0.33008 -1.21621,0 -1.40029,0.17754 -7.51171,7.63477 -3.43582,4.23353 -7.41663,8.85299 -8.84571,10.31445 -4.43917,4.57175 -6.07617,6.44655 -6.07617,7.12109 0,0.8243 -0.58298,1.53324 -1.25195,1.53321 -0.27364,0 -0.96797,0.44958 -1.57617,1.01172 -0.60805,0.5996 -1.61453,1.45583 -2.22266,1.98046 -0.60809,0.52455 -1.60492,1.47044 -2.21289,2.10743 -0.60809,0.63704 -1.71057,1.60979 -2.4707,2.17187 -0.76014,0.56218 -2.06663,1.64512 -2.91797,2.39453 -0.85146,0.74954 -2.85164,2.50646 -4.40235,3.85547 -1.58105,1.38647 -4.44387,4.1288 -6.35937,6.15235 -1.91558,1.98607 -3.70988,3.70982 -3.95313,3.82226 -1.03381,0.48731 -12.46449,7.63987 -13.22461,8.31445 -0.15242,0.14896 -0.85657,0.49159 -1.52539,0.75391 -0.66898,0.26234 -1.48974,0.6017 -1.82422,0.78906 -0.33448,0.14895 -1.42433,0.48377 -2.42773,0.7461 -1.76352,0.41225 -4.25532,1.27007 -7.75195,2.61914 -1.52025,0.5996 -2.46031,0.64712 -10.03125,0.38086 -4.77364,-0.18754 -8.88467,-0.49159 -9.58399,-0.75391 -0.66899,-0.22499 -1.76078,-0.63315 -2.42968,-0.82031 -2.64527,-0.89937 -8.68815,-6.75062 -11.24219,-10.91016 -0.88175,-1.4989 -2.25745,-4.34007 -3.01758,-6.32617 l -1.36719,-3.67383 0.45508,-7.38672 c 0.24325,-4.08458 0.73584,-9.09716 1.07031,-11.1582 0.30399,-2.0985 0.57227,-4.72865 0.57227,-5.92773 0,-1.16171 0.27607,-2.99139 0.58008,-4.07813 0.33448,-1.08675 1.30566,-4.76569 2.1875,-8.17578 1.33783,-5.32121 2.21164,-7.71811 6.10351,-17.23633 4.53041,-11.01708 4.56761,-11.05121 7.21289,-14.42383 1.45944,-1.87366 2.98068,-4.19953 3.40625,-5.17383 0.88175,-2.17346 5.64739,-9.33097 8.14063,-12.2539 0.97303,-1.12413 2.80809,-3.67247 4.05468,-5.6211 2.82771,-4.45928 22.10426,-28.40842 23.95899,-29.79492 0.76012,-0.56217 1.69738,-1.41559 2.12305,-1.86523 1.39863,-1.61135 6.45049,-5.48064 8.18359,-6.26758 1.45946,-0.71191 2.2539,-0.78014 5.62891,-0.70508 l 3.94531,0.0742 2.67773,2.32227 c 1.61148,1.34905 2.73693,2.58352 2.82813,3.0332 0.0605,0.44968 0.18235,2.40493 0.27344,4.35352 0.21278,4.87151 -0.39229,9.32209 -1.79102,12.95703 -0.57766,1.57382 -1.07031,2.96297 -1.07031,3.15039 0,0.14895 -0.21191,0.48377 -0.45508,0.74609 -0.2434,0.26234 -0.45508,0.75413 -0.45508,1.12891 0,1.87367 -6.11279,10.15589 -8.69726,11.80468 -0.97293,0.59952 -3.16174,2.01836 -4.83399,3.14258 -10.73312,7.04495 -11.7046,7.49851 -19.91406,9.25977 -10.67228,2.24836 -10.58626,2.20832 -11.86328,3.48242 -0.6689,0.67448 -1.8568,1.46939 -2.67774,1.80664 -0.79062,0.33748 -1.81819,0.78323 -2.30468,0.9707 -0.48645,0.225 -1.9476,1.61048 -3.22461,3.10938 -1.30752,1.4989 -3.39877,3.41549 -4.67578,4.27734 -1.27703,0.86193 -2.43587,1.86784 -2.5879,2.20508 -0.45612,1.01188 0.0651,3.14369 0.85547,3.63086 0.3648,0.225 2.27281,0.55948 4.21875,0.67188 3.49662,0.26233 3.64497,0.26864 8.72266,-1.26758 5.1081,-1.57387 6.63002,-2.21041 11.09961,-4.6836 1.24671,-0.712 5.32764,-2.88536 9.03711,-4.83398 3.70945,-1.91115 7.14744,-3.89405 7.60351,-4.34375 2.88844,-2.81047 9.33005,-8.0943 11.58008,-9.44336 2.52363,-1.53642 3.07235,-2.1378 11.16016,-11.88086 4.68245,-5.65841 8.94209,-10.98027 9.45898,-11.80469 0.51693,-0.86183 2.00114,-4.16046 3.3086,-7.3457 1.30749,-3.18568 3.03951,-7.26379 3.83007,-9.0625 1.27699,-2.92293 1.67213,-4.27162 2.73633,-9.29297 0.2434,-1.1617 0.21956,-3.19075 -0.17578,-9.89844 -0.12208,-2.06096 -0.24474,-2.25407 -3.49805,-4.65234 -2.82757,-2.136 -3.71352,-2.57974 -6.26757,-3.2168 -1.36815,-0.33702 -2.8553,-0.5625 -3.3418,-0.5625 z m 148.04687,8.57227 c -0.13601,0.002 -0.27155,0.0134 -0.40625,0.0332 h -0.002 c -0.35905,0.0529 -0.71053,0.16972 -1.05273,0.34766 -0.33449,0.14895 -1.22225,0.52478 -1.98243,0.78711 -0.76008,0.26233 -2.00244,0.86426 -2.79296,1.35156 -0.79064,0.44968 -2.28545,1.2374 -3.34961,1.72461 -1.06405,0.52455 -2.55124,1.27492 -3.3418,1.72461 -0.82091,0.44968 -1.78998,0.97368 -2.24609,1.16016 -1.06318,0.52462 -4.95895,1.5 -5.8711,1.5 -0.39522,0 -1.85356,0.525 -3.1914,1.1621 -1.36819,0.63704 -3.22457,1.49409 -4.13672,1.90625 -0.91215,0.44969 -2.34007,1.08772 -3.19141,1.5 -0.82095,0.41225 -2.61728,0.86526 -3.95508,1.05274 -1.33787,0.14895 -3.19132,0.6695 -4.10351,1.11914 -1.06417,0.52454 -2.21848,0.82649 -3.19141,0.78906 -1.12513,-0.0385 -2.16176,0.2635 -4.04687,1.27539 -1.39866,0.71191 -2.76731,1.31055 -3.04102,1.31055 -0.27364,0 -0.93808,0.33827 -1.48437,0.71289 -0.76014,0.59961 -1.00041,1.08858 -1.15235,2.4375 -0.15231,1.19923 -0.55608,2.17465 -1.37695,3.29883 -0.60798,0.89936 -1.43114,2.31817 -1.76563,3.14258 -0.72971,1.72375 -2.15303,3.37941 -3.58203,4.1289 -0.54727,0.26234 -1.70419,1.49611 -2.58593,2.69531 -0.91216,1.23662 -3.25885,3.85768 -5.26563,5.84376 -2.70607,2.69804 -3.79005,3.59765 -4.45898,3.59765 -1.12494,5e-5 -4.14235,-1.8763 -5.11524,-3.15039 -0.85145,-1.12413 -2.46305,-1.30901 -3.10156,-0.37305 -0.36473,0.56218 -1.2759,1.30887 -6.56641,5.50586 l -2.21289,1.76563 v 2.95898 c 0,1.64878 0.20405,3.63578 0.44727,4.53516 0.2434,0.86183 0.46484,2.74243 0.46484,4.1289 0,2.39832 -0.0718,2.65248 -1.22656,4.45118 -0.66902,1.04925 -1.36331,1.9082 -1.57617,1.9082 -0.69933,0 -4.89135,5.84792 -5.6211,7.83398 -0.3953,1.1243 -1.40475,2.92145 -2.19531,3.97071 -0.85145,1.1617 -1.57323,2.62337 -1.81641,3.59765 -0.21278,0.89937 -0.76537,2.40499 -1.25195,3.3418 -0.85141,1.72373 -5.49601,10.04243 -7.32031,13.11524 -0.63851,1.08673 -1.35165,3.10609 -1.99024,5.65429 -0.51692,2.21096 -1.23973,4.65254 -1.57421,5.43945 -1.67229,3.82231 -2.4961,6.93064 -2.4961,9.44141 0,0.97427 -0.30748,2.32076 -0.76367,3.48242 -0.69921,1.64883 -0.75042,2.21231 -0.62891,4.68555 0.0915,1.53642 0.26701,2.99124 0.38868,3.29102 0.60816,1.27413 3.31902,5.06445 3.62304,5.06445 0.18218,0.0385 0.51772,-0.48224 0.73047,-1.11914 0.33449,-0.93699 0.33149,-1.83736 0.0566,-4.31055 -0.33449,-2.99784 -0.30258,-3.41864 0.54883,-7.57812 0.48643,-2.39828 1.03917,-5.20498 1.25195,-6.2168 0.45612,-2.43575 3.55057,-10.37707 4.94922,-12.77539 0.60805,-1.04925 2.15462,-3.7837 3.43164,-6.14453 1.30734,-2.36079 2.83552,-4.73125 3.38281,-5.25586 0.57774,-0.52455 1.21867,-1.60401 1.49219,-2.35352 0.30388,-1.01165 0.91124,-1.76348 2.00586,-2.58789 0.88173,-0.63704 2.162,-1.8322 2.86133,-2.61914 1.55074,-1.76126 2.60783,-1.87248 4.31055,-0.52344 0.66897,0.48712 1.28098,1.04529 1.34179,1.19532 0.0915,0.18754 -0.0378,1.72549 -0.28125,3.44921 -0.42561,2.92294 -0.39301,3.22044 0.21485,6.06836 0.57777,2.58568 0.64259,3.14819 0.30859,4.38477 -0.36472,1.31153 -0.37564,4.08318 0.0254,15.4375 0.0605,2.06106 -0.63545,9.96658 -1.15234,13.41406 -0.42561,2.6606 -0.45014,3.44786 -0.11524,5.39649 0.45612,2.62312 0.20706,13.82894 -0.33984,15.55273 -0.18217,0.56121 -0.39329,2.66074 -0.42383,4.60938 -0.0605,1.94858 -0.39692,5.85 -0.76172,8.62304 -0.57774,4.42182 -0.63329,5.35723 -0.29883,7.79297 0.21317,1.76123 0.26977,4.19556 0.14844,6.78125 -0.21278,3.85969 -0.18862,4.04487 0.48047,5.05664 0.69929,0.97428 0.75713,1.01483 1.79102,0.49024 0.57766,-0.29976 2.53143,-0.6336 4.29492,-0.7461 4.46959,-0.29975 7.75687,-1.65284 9.55078,-4.01367 l 0.91211,-1.16797 -0.0918,-12.43554 c -0.0915,-10.86628 -0.0655,-12.78027 0.39063,-14.99024 0.45611,-2.17348 0.48221,-2.76732 0.14843,-4.00391 -0.24338,-0.93687 -0.30296,-2.14141 -0.18164,-3.26562 0.12208,-0.97427 0.54806,-4.90818 0.94336,-8.73047 0.48643,-4.30938 1.06438,-7.98947 1.55078,-9.67578 0.51697,-1.91114 0.69882,-3.10456 0.54688,-4.00391 -0.12208,-0.86193 0.0313,-2.02026 0.45703,-3.55664 0.57766,-2.02354 0.61014,-2.51066 0.30664,-4.83398 -0.33449,-2.39733 -0.29664,-2.70158 0.28125,-3.86328 0.36473,-0.71201 0.8137,-2.20786 0.9961,-3.33203 0.18255,-1.12414 0.61585,-2.62009 0.91992,-3.33203 0.79064,-1.79875 1.72754,-6.41048 2.39648,-11.80665 0.51693,-4.00961 1.15187,-6.59032 2.61133,-10.5625 1.00339,-2.73459 1.33398,-4.465 1.33398,-6.86328 0,-2.9604 0.21503,-3.89365 2.03907,-8.61523 0.7906,-2.06108 2.00997,-6.29977 2.86132,-10.1211 0.82092,-3.59742 1.63983,-6.85927 1.82227,-7.27148 0.18255,-0.37482 0.6059,-1.31499 0.9707,-2.06445 0.33449,-0.74944 1.03901,-2.28403 1.52539,-3.40821 0.48647,-1.12413 1.24315,-2.54533 1.69922,-3.10742 1.36834,-1.79871 4.28861,-4.01645 6.87305,-5.14062 4.46963,-1.94863 14.26032,-7.10974 15.26367,-8.08399 1.30753,-1.23662 5.83609,-2.44225 7.38672,-1.95507 2.7061,0.86181 6.11528,5.36266 8.36524,11.05859 0.76011,1.9111 1.36718,3.55524 1.36718,3.70508 0,0.11248 0.27876,0.67874 0.61328,1.27734 0.85127,1.49894 2.67544,1.71633 4.56055,0.55469 0.76014,-0.48721 1.90637,-1.00668 2.54492,-1.11914 0.60805,-0.14945 2.13623,-1.08399 3.38281,-2.09571 1.24672,-0.97427 2.66949,-2.05923 3.2168,-2.39648 0.94258,-0.59961 0.94686,-0.68109 0.79492,-2.55469 -0.0915,-1.08675 -0.40109,-2.53798 -0.70507,-3.25 -1.06405,-2.54814 -1.76309,-11.28555 -1.45899,-17.88086 0.1217,-2.28586 0.10689,-4.57138 0.0352,-5.05859 -0.1217,-0.48711 -0.79065,-1.46846 -1.55078,-2.10547 -0.89791,-0.81144 -1.87407,-1.21795 -2.82618,-1.20117 z m 300.8711,5.6875 c -0.13181,0.022 -0.26561,0.0686 -0.41016,0.13281 -0.15231,0.11248 -2.28433,0.51904 -4.7168,0.96875 -10.91548,1.94858 -12.24969,2.21099 -13.22265,2.81055 -1.94593,1.12414 -3.07411,2.66385 -3.77344,5.09961 -0.36472,1.31149 -0.81471,2.69522 -1.02734,3.10742 -0.18255,0.41225 -0.46349,2.4331 -0.55469,4.49414 -0.1217,2.06103 -0.35659,6.03165 -0.53906,8.80469 -0.36473,5.02139 -0.82492,13.04657 -1.12891,19.11718 -0.0915,1.76128 -0.0296,4.16183 0.125,5.39844 0.18255,1.46138 0.19962,2.65732 -0.0332,3.55664 -0.18255,0.74944 -0.31342,2.51352 -0.28321,3.9375 0.0605,1.4615 -0.2647,4.94827 -0.7207,8.0586 -0.82095,5.69592 -0.79136,6.88608 0.0918,10.37109 0.42565,1.76028 0.43997,2.17529 -0.0352,5.24805 -0.2434,1.83624 -0.66194,5.1758 -0.93554,7.38672 -0.24341,2.24843 -0.52498,4.23063 -0.64649,4.41796 -0.0915,0.225 -0.30494,2.25281 -0.45703,4.57618 -0.15231,2.32335 -0.45202,6.03053 -0.69531,8.3164 -0.39519,3.78477 -0.36564,4.60336 0.18164,9.84961 l 0.58008,5.77735 -0.61329,2.36328 c -0.82089,3.03537 -0.79058,4.82332 0,7.93359 0.60809,2.28592 0.63959,2.96888 0.45704,8.58985 -0.1217,3.37255 -0.39253,6.92962 -0.60547,7.9414 -0.2434,1.27414 -0.27252,2.10002 -0.0586,2.66211 0.21317,0.59961 0.18332,1.04949 -0.0586,1.57422 -0.66883,1.31153 -0.39923,16.863 0.48242,27.95508 0.18255,2.28584 0.36137,2.88615 1.06055,3.74804 0.81997,1.01188 0.91347,1.04834 4.41015,1.08594 1.94593,0 4.32309,0.14852 5.26563,0.29883 1.58101,0.26234 1.79735,0.22553 3.71289,-1.08594 1.12494,-0.7859 2.45686,-1.87894 2.94336,-2.47851 0.72983,-0.9368 1.21943,-1.15635 2.86133,-1.34375 1.88511,-0.18728 2.06659,-0.33436 3.83008,-2.32032 2.58451,-2.96041 7.33423,-11.95907 8.39843,-15.96875 0.60809,-2.17343 1.15035,-3.44696 2.0625,-4.68359 0.69929,-0.93603 1.57927,-2.35918 1.97461,-3.18359 0.39523,-0.82354 1.12374,-2.02082 1.64063,-2.69532 0.48642,-0.63703 1.33831,-2.39758 1.91601,-3.89648 0.60817,-1.72378 2.16037,-4.57407 4.13672,-7.60937 6.05065,-9.44327 6.86718,-10.8285 7.08008,-12.40235 0.1217,-0.8245 0.51681,-2.10826 0.91211,-2.82031 2.73649,-5.17123 4.22806,-8.19594 5.23047,-10.74414 0.60828,-1.61134 2.5258,-5.47406 4.22851,-8.54688 5.56415,-10.19269 8.77862,-16.07754 10.51172,-19.15039 2.12841,-3.82225 2.77613,-5.28026 2.38086,-5.58008 -0.18255,-0.11247 -0.29883,-0.52609 -0.29883,-0.86328 0,-0.5996 3.82642,-8.05624 5.80274,-11.3164 0.42561,-0.71201 2.10055,-4.4258 3.68164,-8.24805 6.05068,-14.50209 7.0554,-16.70403 8.69727,-19.02734 0.91213,-1.27414 1.85162,-2.33008 2.06445,-2.33008 0.88176,0 1.42832,2.36222 1.73242,7.49609 0.33449,5.546 0.29866,5.80147 -2.5293,42.33789 -0.72979,9.25491 -0.72017,10.16572 -0.11718,17.43555 0.33448,4.23446 0.3933,6.10505 0.15039,7.1543 -0.21317,0.97426 -0.19798,2.21023 -0.0352,3.89648 1.09459,9.03111 1.58069,12.55021 2.09766,15.02344 0.30387,1.53549 0.79949,4.12852 1.10351,5.77734 0.27364,1.64883 0.63506,3.40508 0.78711,3.92969 0.39523,1.42402 0.38089,4.42497 0.0273,7.12305 -0.21314,1.46149 -0.27468,3.97268 -0.18359,6.18359 0.18255,3.59742 0.24559,3.86149 1.49219,6.25977 1.0642,2.09851 1.37168,3.10347 1.67578,5.61328 0.21317,1.72373 0.36069,4.20019 0.33008,5.51172 -0.0302,2.69808 -0.029,2.70198 3.77344,6.03711 4.46963,3.85971 5.29437,4.74915 6.54101,6.84765 1.12494,1.83615 1.63809,2.36885 3.79688,3.60547 3.92228,2.24844 5.8668,4.08631 7.75195,7.27148 1.36807,2.32335 1.94484,2.99734 3.19141,3.67188 0.85164,0.44968 2.15786,1.53035 2.91796,2.42969 1.55074,1.72374 3.01147,2.32771 4.41016,1.76562 1.18575,-0.48634 1.52629,-2.14195 0.70508,-3.41601 -1.45943,-2.28587 -5.9944,-14.57341 -8.63867,-23.30469 -0.69959,-2.3608 -1.76301,-5.42792 -2.3711,-6.81445 -1.91554,-4.42182 -2.28041,-6.52109 -2.46289,-13.60352 -0.0964,-3.85973 -0.33206,-7.26621 -0.60547,-8.61523 -0.94212,-4.4968 -2.40102,-21.9274 -2.91796,-35.04297 -1.03291,-24.99461 -1.12962,-26.57218 -2.07227,-31.10547 -0.85145,-4.00962 -0.88185,-4.56652 -0.63867,-7.97656 0.1217,-1.98607 0.36883,-3.86658 0.49023,-4.12891 0.1217,-0.225 0.3306,-1.53574 0.42188,-2.88477 0.1217,-1.34812 0.42636,-3.44698 0.73047,-4.68359 0.45611,-1.98607 0.51572,-3.37041 0.33007,-11.68945 l -0.17382,-9.48438 0.8789,-1.9414 c 1.24675,-2.73557 1.87543,-7.46398 1.54102,-11.17383 -0.15194,-1.53642 -0.53623,-5.6937 -0.8711,-9.17774 l -0.61328,-6.37695 0.73047,-1.75586 c 0.6082,-1.42398 0.75391,-2.35744 0.75391,-4.56836 0,-3.70985 -0.0767,-3.97266 -1.59961,-3.97265 -3.55744,0 -10.61181,1.38052 -12.52735,2.42968 -0.82095,0.44968 -2.40345,1.20074 -3.49804,1.65039 -1.09463,0.44968 -2.80048,1.39424 -3.77344,2.03125 -1.58105,1.04926 -2.09472,1.68123 -3.88867,4.94141 -2.09798,3.78477 -3.29102,6.44562 -3.29102,7.41992 0,0.29976 -0.20397,0.74933 -0.44726,1.01172 -0.2434,0.26234 -0.46485,0.67755 -0.46485,0.90234 0,0.225 -1.05763,3.70137 -2.39453,7.71094 -2.12836,6.4829 -3.89438,10.95408 -5.50586,13.87695 -0.27364,0.52455 -0.76362,1.75348 -1.03711,2.80274 -0.30387,1.01186 -0.87716,2.8133 -1.24218,3.9375 -0.36473,1.12414 -1.09467,3.33862 -1.55079,4.875 -0.72967,2.36079 -1.2462,3.21101 -3.00976,5.42187 -1.79388,2.17347 -2.33729,3.15763 -3.1582,5.63086 -0.54728,1.64883 -1.21848,3.41289 -1.49219,3.9375 -0.2434,0.52455 -1.55677,3.55503 -2.89453,6.74024 -3.46625,8.394 -4.4969,10.41744 -6.56446,12.89062 -2.67567,3.18524 -8.05506,13.25982 -9.75781,18.28125 -1.27608,3.78478 -1.58957,4.2733 -5.02539,8.91992 -2.00674,2.73557 -3.79886,5.43131 -4.01172,6.06836 -0.69929,2.06104 -6.4439,10.979 -8.57226,13.33985 -1.91558,2.0985 -2.15883,2.51737 -2.46289,4.35351 -0.79064,4.79659 -5.07826,9.21875 -8.87891,9.21875 -1.39865,0 -1.88443,-0.18824 -2.64453,-0.9375 l -0.91211,-0.97851 v -5.84375 c -0.0302,-3.22269 -0.14986,-6.43807 -0.33203,-7.1875 -0.42562,-1.98612 -0.1517,-9.67446 0.45703,-11.62305 0.42561,-1.42399 0.46083,-3.44853 0.27344,-17.80078 -0.21317,-17.83727 0.20956,-26.86839 1.42578,-30.76563 0.30387,-1.04925 0.75874,-3.8939 1.00195,-6.36718 0.27364,-2.62308 0.76268,-5.54966 1.21875,-6.97266 0.39523,-1.34911 0.9755,-4.11476 1.21875,-6.17578 0.27364,-2.02352 0.69414,-5.05821 0.9375,-6.70703 0.2434,-1.64881 0.61237,-4.53885 0.79492,-6.375 0.21279,-1.91115 0.70059,-4.27785 1.09571,-5.43946 1.24671,-3.4101 4.0371,-12.09328 4.0371,-12.54296 0,-0.225 0.39729,-1.16861 0.85352,-2.10547 0.60816,-1.12413 0.93877,-2.39852 1.06055,-3.89649 0.1217,-1.23662 0.34128,-3.9331 0.52343,-5.99414 0.18256,-2.06102 0.24475,-5.28686 0.12305,-7.12304 -0.15231,-2.96037 -0.2772,-3.51865 -0.97656,-4.41797 -0.45615,-0.56218 -1.21463,-1.27652 -1.70117,-1.57617 -0.44002,-0.28048 -0.76001,-0.43971 -1.04102,-0.4961 h -0.002 c -0.14001,-0.0275 -0.26923,-0.0293 -0.40039,-0.008 z m -192.33789,0.78515 c -0.13736,0.006 -0.28554,0.0193 -0.44531,0.043 -0.42611,0.0606 -0.94626,0.18844 -1.61524,0.35743 -1.45946,0.33698 -5.66037,2.05033 -7.63672,3.0996 -3.31419,1.76118 -8.11295,3.56069 -9.99804,3.74805 -1.15541,0.11248 -3.49963,0.75898 -5.17188,1.4336 -7.08442,2.88543 -9.26318,3.63116 -11.84766,4.00585 -1.48992,0.18728 -3.34337,0.71494 -4.10351,1.12696 -1.06428,0.59961 -1.74195,0.70894 -2.92774,0.52148 -1.24652,-0.18727 -1.97775,-0.0447 -3.95312,0.85352 -1.30753,0.59951 -2.91313,1.21145 -3.58203,1.36133 -1.42821,0.33698 -2.49304,1.64 -2.73633,3.51367 -0.1217,0.89936 -0.64296,1.98943 -1.43359,3.07617 -0.66891,0.93689 -1.48981,2.28142 -1.82422,3.06836 -0.63859,1.53641 -1.70311,2.59299 -3.74024,3.67969 -0.79064,0.44968 -1.859,1.53435 -2.61914,2.62109 -0.69929,1.01187 -2.15037,2.69331 -3.27539,3.70508 -1.12494,1.04926 -2.91709,2.7398 -4.01172,3.78906 -1.67225,1.6113 -2.10205,1.83775 -2.89258,1.65039 -1.36818,-0.37481 -2.97945,-1.46412 -4.56054,-3.15039 -1.61152,-1.72374 -2.61692,-1.91693 -3.58985,-0.60547 -0.36472,0.48731 -1.33807,1.31882 -2.18945,1.88086 -3.04052,1.98607 -5.62347,4.00178 -6.20117,4.82617 -0.39523,0.63705 -0.39624,0.94038 0.15039,10.4961 0.18255,3.26017 0.19074,3.30252 -0.8125,5.13867 -0.63855,1.12417 -1.49798,2.05849 -2.19727,2.4707 -1.58105,0.89936 -5.5623,6.10811 -5.83593,7.64453 -0.1217,0.71191 -0.85411,1.95127 -1.85743,3.15039 -1.12493,1.38647 -1.82513,2.62219 -2.28125,4.1211 -0.54723,1.83618 -6.98512,13.15291 -9.50781,16.71289 -0.39522,0.52454 -1.01489,2.28086 -1.41015,3.92969 -0.79061,3.33507 -1.60009,5.6952 -2.60352,7.71875 -0.94258,1.87363 -2.25391,6.67418 -2.25391,8.24804 0,0.71191 -0.34283,2.06443 -0.73828,3.07617 -1.03381,2.47324 -1.03381,6.17991 0,8.16602 0.39519,0.78591 0.85367,1.50043 1.03516,1.65039 0.18255,0.14895 0.67794,0.90013 1.10351,1.72461 0.39523,0.78687 0.90914,1.45898 1.15235,1.45898 0.6376,0 1.00556,-2.51265 0.85351,-6.03515 -0.1217,-2.84795 -0.002,-3.74634 0.97071,-7.94336 0.60809,-2.58564 1.09371,-4.98145 1.09375,-5.28125 0,-1.38645 4.13679,-10.45644 6.59961,-14.54102 1.48996,-2.43575 3.21977,-5.36374 3.88867,-6.52539 0.66901,-1.1617 1.58287,-2.4358 2.03906,-2.81054 0.45615,-0.41215 1.12446,-1.37943 1.45899,-2.12891 0.3952,-0.89937 1.19061,-1.76798 2.07226,-2.33008 0.76014,-0.52455 2.00662,-1.57277 2.73633,-2.32226 2.06755,-2.2484 2.9182,-2.24273 5.10742,-0.10743 l 0.8457,0.86133 -0.35742,2.6543 c -0.48654,3.5225 -0.45669,5.14301 0.11719,7.91602 0.39522,1.98604 0.40877,2.38953 0.0332,3.10156 -0.54633,1.08663 -0.89057,11.29179 -0.46484,14.02734 0.27364,1.61131 0.22151,2.32259 -0.17383,3.89649 -0.30387,1.08577 -0.45566,2.35662 -0.33203,2.84375 0.15231,0.86183 -0.24571,4.00212 -1.21875,9.21093 -0.30387,1.68626 -0.33111,2.70257 -0.0566,4.57617 0.42565,3.11029 -0.12703,13.41986 -0.88672,16.04297 -0.30387,1.1243 -0.42798,2.31616 -0.33984,3.14063 0.1217,0.78591 -0.11108,3.22238 -0.59766,6.07031 -0.66898,4.00965 -0.79278,5.81249 -0.85352,11.8457 -0.0302,3.89722 -0.16112,7.64616 -0.2832,8.28321 -0.15231,0.78696 -0.0535,1.67878 0.25,2.57812 0.42561,1.27414 0.57879,1.38924 1.30859,1.12696 0.48643,-0.11248 2.49518,-0.40835 4.50196,-0.59571 2.00674,-0.18727 4.68113,-0.71237 5.92773,-1.16211 2.28042,-0.74953 4.64296,-2.47348 5.00781,-3.59765 0.0915,-0.33748 0.24838,-5.84048 0.33985,-12.21094 0.1217,-9.21749 0.24371,-12.14303 0.63867,-13.9043 0.30387,-1.38642 0.49245,-3.41115 0.43164,-5.32226 -0.0302,-1.7987 0.20728,-4.87883 0.57227,-7.50196 0.36472,-2.43575 0.78349,-5.47165 0.93554,-6.7832 0.39519,-3.41009 0.80259,-5.39488 1.50196,-7.56836 0.33449,-1.04925 0.60351,-2.68973 0.60351,-3.66406 0,-0.97427 0.26813,-2.63238 0.57227,-3.68164 0.48642,-1.53643 0.5835,-2.46841 0.43164,-4.7168 -0.15232,-2.54816 -0.0901,-2.96557 0.63867,-4.50195 0.42561,-0.93689 0.78711,-2.08669 0.78711,-2.61133 0,-0.52455 0.34086,-1.76203 0.79687,-2.73633 1.15541,-2.69804 2.46054,-8.13874 3.00782,-12.56054 0.42565,-3.2977 0.78993,-4.72011 2.37109,-8.80469 1.67225,-4.45934 1.85444,-5.16954 2.09766,-8.42969 0.21278,-3.33514 0.35877,-3.85948 2.03125,-7.86914 1.1554,-2.73548 2.41326,-6.67212 3.50781,-10.86914 1.45946,-5.65848 2.00352,-7.16138 3.88867,-11.0586 2.21957,-4.45924 2.21439,-4.44822 4.79883,-6.35937 1.42911,-1.04926 3.67782,-2.33049 5.01563,-2.89258 1.33781,-0.52454 4.02192,-1.68299 5.9375,-2.54492 1.91552,-0.86183 4.30907,-1.91435 5.3125,-2.28906 1.00333,-0.41225 2.58784,-1.31574 3.5,-1.99024 1.91548,-1.42398 5.32194,-2.31419 7.41992,-1.93945 2.94928,0.56208 6.50086,5.65168 8.99414,12.95898 0.7296,2.17343 1.55554,4.12244 1.79883,4.38477 0.91132,0.8244 2.526,0.86009 3.95507,0.0762 0.7601,-0.41225 2.00662,-0.89439 2.73633,-1.11914 1.82434,-0.48721 7.29532,-4.31602 7.66016,-5.36523 0.2434,-0.59971 0.12815,-1.54071 -0.48047,-3.78907 -1.06409,-4.00965 -1.61763,-13.78342 -1.07031,-18.99218 0.54723,-5.02144 0.51411,-5.13644 -1.12696,-6.97266 -0.8722,-0.94844 -1.33785,-1.38438 -2.05664,-1.4668 v -0.002 c -0.11981,-0.0125 -0.24741,-0.015 -0.38476,-0.01 z m 396.06051,0.5254 c -0.3141,-0.003 -0.6016,0.008 -0.8672,0.0312 -1.063,0.0926 -1.7924,0.40155 -2.7343,0.96289 -1.1555,0.712 -1.8051,0.82095 -4.42,0.74609 -1.672,-0.0751 -3.3121,0.0375 -3.6464,0.22266 -0.3349,0.18727 -1.3594,0.67461 -2.2715,1.08593 -0.9123,0.41225 -2.7754,1.24577 -4.1133,1.88282 -1.3378,0.5996 -3.5866,1.45294 -5.0156,1.86523 -1.8548,0.52455 -4.2317,1.73417 -8.2149,4.16992 -3.1014,1.87366 -5.9494,3.67091 -6.375,3.97071 -0.6996,0.48721 -1.7415,1.11502 -7.7617,4.75 -1.3064,0.82439 -2.8821,1.95586 -3.4902,2.48046 -0.5774,0.56218 -1.6774,1.41485 -2.4375,1.93946 -1.5811,1.04925 -7.74394,6.78157 -10.05471,9.36718 -0.27326,0.29976 -1.62584,1.72642 -2.99414,3.1504 -1.33776,1.42398 -2.54548,2.9628 -2.63672,3.375 -0.12208,0.44968 -2.3422,3.48365 -4.95703,6.78125 -3.1926,4.00962 -5.53156,7.34298 -7.02148,10.04101 -1.24668,2.21096 -2.94971,5.1701 -3.74024,6.55664 -0.82084,1.38642 -1.67089,3.00359 -1.91406,3.64063 -0.21279,0.5996 -0.55303,1.38959 -0.70508,1.68945 -0.69959,1.27304 -3.28165,8.16828 -3.64648,9.74219 -0.24341,0.93689 -0.59983,2.39238 -0.8125,3.21679 -0.60817,2.39828 -0.83238,6.74443 -0.58985,11.54102 l 0.21485,4.35156 1.76757,2.66211 c 1.36808,2.06104 1.95097,3.33262 2.4375,5.28125 0.51678,2.17348 0.90781,2.92189 2.2461,4.5332 2.40109,2.88546 2.46001,4.38538 0.60547,14.99024 -0.69959,4.00966 -0.76088,4.98795 -0.63868,11.05859 0.18293,9.29334 0.7895,14.91343 2.00586,18.39844 0.51674,1.4989 1.00447,3.41192 1.09571,4.23633 0.15193,1.57382 0.85281,3.44684 1.40039,3.89648 0.18293,0.14945 0.87899,1.6457 1.51758,3.33203 0.97307,2.66056 1.46095,3.45124 3.49804,5.66211 1.30757,1.42398 2.92095,3.29598 3.58985,4.19532 1.33776,1.76122 5.62419,6.29645 6.93164,7.3457 1.88515,1.4989 6.77622,3.36945 11.30661,4.34375 3.0102,0.63704 4.9574,0.74609 12.0723,0.74609 h 8.4883 l 2.8281,-1.31054 c 1.5202,-0.74954 3.4282,-1.68545 4.2188,-2.09766 0.7908,-0.37482 2.6128,-1.05029 4.0722,-1.5 2.2804,-0.67447 4.6227,-1.83308 6.5078,-3.33203 0.2434,-0.18728 3.7131,-2.57889 7.7266,-5.31445 7.1453,-4.90899 7.3,-5.03438 9.7324,-8.33204 4.1959,-5.65843 9.2956,-12.25081 12.0625,-15.58593 1.4594,-1.76123 3.2332,-4.27208 3.9629,-5.6211 0.6996,-1.34906 2.0672,-3.52598 3.0098,-4.875 0.943,-1.34906 2.4869,-3.9665 3.4902,-5.80273 3.2535,-6.18309 3.8025,-7.1175 6.3262,-10.90234 2.2803,-3.37253 4.1699,-7.01009 4.1699,-7.98438 0,-0.18728 0.7815,-2.02922 1.7246,-4.05273 3.0101,-6.44542 5.3244,-11.45688 6.1758,-13.48047 0.4561,-1.08675 1.0061,-2.21744 1.2187,-2.55469 0.4254,-0.63704 0.3053,-1.90799 -0.455,-4.34375 l -0.5489,-1.72461 0.9375,-2.36328 c 0.639,-1.57382 0.9785,-2.91717 0.9785,-4.00391 0,-1.72373 1.9171,-9.30142 2.586,-10.23828 0.5773,-0.82353 1.0901,-9.96209 0.9375,-16.48242 -0.1221,-4.34687 -0.2671,-5.80458 -0.7539,-7.22852 -0.3349,-0.97426 -0.7652,-3.23449 -0.9785,-5.0332 -0.183,-1.83618 -0.5202,-3.73518 -0.7637,-4.25976 -0.2128,-0.52455 -0.5501,-1.79874 -0.7637,-2.81055 -0.2128,-1.0109 -0.6653,-2.28166 -1.0605,-2.84375 -0.3648,-0.56218 -1.2401,-2.44613 -1.9395,-4.16992 -1.5508,-3.82226 -2.5844,-4.83469 -5.1992,-5.0586 -1.6115,-0.14895 -1.917,-0.075 -2.5859,0.71289 -0.6082,0.71201 -0.7633,1.19727 -0.6719,2.39649 0.058,1.12412 -0.031,1.49506 -0.3906,1.60742 -0.2744,0.0385 -1.8892,-1.56062 -3.8047,-3.77148 -1.8244,-2.17344 -3.7711,-4.38714 -4.3184,-4.94922 -0.5476,-0.56199 -1.1844,-1.46921 -1.4277,-2.03125 -0.7602,-1.76123 -4.7736,-5.61331 -8.7871,-8.42383 -2.7061,-1.87269 -2.8579,-2.03267 -3.6485,-4.09375 -1.0337,-2.54811 -2.3144,-4.2686 -3.4394,-4.56836 -0.4562,-0.14944 -1.1837,-0.40568 -1.6094,-0.63086 -0.8199,-0.44968 -1.0377,-0.49084 -3.8047,-0.82813 -1.6874,-0.22481 -2.8896,-0.34785 -3.834,-0.35546 z m -320.44918,10.10742 c -0.22168,-0.0205 -0.43882,-0.0148 -0.66211,0.0215 -0.89318,0.14608 -1.89094,0.75799 -3.73047,1.95703 -2.55406,1.68631 -3.77518,2.25014 -5.17383,2.4375 -1.73314,0.26234 -2.03069,0.48317 -5.31445,3.63086 -1.91554,1.87367 -3.83404,3.74565 -4.25977,4.19531 -0.42561,0.44969 -2.69984,2.73329 -5.04101,5.05665 -3.04056,2.96036 -5.04815,5.29132 -6.78126,7.87695 -1.36828,2.02262 -2.83681,3.96572 -3.29296,4.37695 -4.46952,4.0471 -8.84289,9.48467 -9.72461,12.07031 -0.21317,0.67371 -1.06284,1.8717 -1.91407,2.6211 -2.06759,1.98608 -1.94273,3.71024 0.36524,4.38476 2.2196,0.63704 7.08465,-4.00169 16.38867,-15.69336 4.50002,-5.62099 7.72089,-9.33212 8.57227,-9.93164 l 1.39453,-0.90429 3.86328,0.49023 c 3.61829,0.41225 3.95368,0.52071 4.95703,1.60742 4.71281,4.98391 6.20422,7.7581 8.42383,15.77735 0.7601,2.73557 1.82661,5.95869 2.40429,7.19531 0.72972,1.68631 1.05709,2.95604 1.20899,4.86719 0.1217,1.46149 0.27156,3.30449 0.33203,4.1289 0.0605,0.82441 0.64387,2.50168 1.25195,3.73828 0.60817,1.23658 1.15509,2.36609 1.18555,2.47852 0.0605,0.14895 -0.0864,0.34444 -0.29883,0.45703 -0.30387,0.14944 -0.76676,-0.41857 -1.375,-1.54297 -1.39865,-2.69808 -2.97342,-4.33885 -5.95312,-6.25 -1.48993,-0.97427 -3.04427,-2.03455 -3.40821,-2.29687 -0.72971,-0.56198 -4.07945,-1.08013 -9.40039,-1.49219 -3.04051,-0.225 -3.46797,-0.14892 -4.77539,0.5625 -0.79064,0.44968 -2.8481,1.11522 -4.55078,1.52734 -1.70268,0.37482 -3.70861,0.86538 -4.46875,1.05274 -0.7601,0.18754 -2.86398,1.20209 -4.71875,2.21289 -1.82426,1.04926 -4.76768,2.54505 -6.53125,3.33203 -1.76349,0.74943 -3.47215,1.68619 -3.80664,2.02344 -0.33449,0.37481 -0.93353,0.79548 -1.35937,0.94531 -0.42565,0.14895 -1.43574,0.73869 -2.28711,1.30078 -0.82095,0.59961 -2.49308,1.3865 -3.64844,1.79883 -1.18575,0.41225 -3.3441,1.53938 -4.83399,2.51367 -1.58099,1.04926 -3.16677,1.83133 -3.89648,1.90625 -0.66901,0.0751 -2.28021,0.82527 -3.64844,1.72461 -2.03716,1.34907 -2.52246,1.88391 -3.1914,3.38281 -0.54724,1.23663 -1.45355,2.35601 -2.94336,3.70508 -1.18575,1.08675 -2.65472,2.50913 -3.23242,3.18359 -0.57771,0.67467 -2.82645,2.32831 -5.01563,3.71485 -2.67568,1.68627 -4.61163,3.22618 -6.10156,4.875 -1.21622,1.27415 -3.01806,2.91964 -4.02149,3.55664 -0.97307,0.67467 -2.09106,1.79975 -2.48632,2.51172 -0.66891,1.23662 -3.59215,3.9666 -5.08204,4.79101 -0.36472,0.18728 -1.73551,1.49814 -3.04296,2.88477 -1.30753,1.34812 -3.95552,4.1288 -5.8711,6.15234 -4.04387,4.27198 -3.61228,3.63123 -6.53125,9.02735 -1.24652,2.28587 -2.46265,4.41345 -2.73633,4.67578 -0.2434,0.26234 -1.46644,1.92041 -2.65234,3.68164 -1.21621,1.76122 -2.69543,3.89787 -3.33398,4.75976 -0.63848,0.89937 -1.16016,1.94908 -1.16016,2.36133 0,0.44969 -0.27136,1.22897 -0.60547,1.79102 -0.45615,0.78687 -0.72729,2.58919 -1.24414,7.68555 l -0.66992,6.67382 1.33398,3.36524 1.34375,3.34179 4.5586,2.95899 c 5.47294,3.52248 8.05112,4.75317 8.87109,4.22851 0.30387,-0.2245 1.18916,-0.29411 1.94922,-0.18164 1.21625,0.18717 1.52339,0.0735 2.43555,-0.9375 1.42911,-1.53642 3.27872,-2.70312 4.3125,-2.70312 0.60816,0 1.34513,0.52629 2.3789,1.65039 2.06755,2.28583 8.83813,7.34518 11.02735,8.20703 l 1.79882,0.74609 1.3418,-0.82031 c 0.88176,-0.52455 1.91296,-0.7793 3.06836,-0.77929 2.8885,-4e-5 14.2632,-3.94595 17.97266,-6.19336 1.42907,-0.89937 3.64594,-1.97806 4.89257,-2.42774 1.24653,-0.44968 2.82911,-1.23683 3.49805,-1.79883 3.07094,-2.47324 5.70606,-4.20508 6.375,-4.20507 0.39523,0 1.09741,-0.36631 1.58399,-0.85352 0.45611,-0.48731 1.46251,-1.15844 2.22265,-1.5332 0.76014,-0.33748 2.12883,-1.21178 3.04102,-1.92383 0.91215,-0.67447 2.48692,-1.5279 3.49023,-1.86524 2.55409,-0.93679 7.30099,-4.34978 9.27735,-6.74804 1.03377,-1.27322 2.43781,-2.43843 3.71484,-3.15039 1.64186,-0.9368 2.286,-1.5677 3.44141,-3.44141 1.00346,-1.57381 2.81997,-3.55884 6.04296,-6.55664 3.3142,-3.03537 4.76599,-4.65104 5.13086,-5.58789 0.27364,-0.71191 1.64932,-2.62145 3.01758,-4.19531 1.39865,-1.61134 3.39959,-4.00642 4.49414,-5.35547 2.49324,-3.07281 9.28468,-14.95082 10.74414,-18.81055 0.85142,-2.24839 1.27184,-2.96299 1.84961,-3.15039 1.36827,-0.41225 3.68418,2.54597 3.98828,5.05664 0.33449,2.88544 1.18737,6.63575 1.67383,7.53516 0.39523,0.63704 0.59626,1.94739 0.6875,4.3457 0.15232,3.14772 0.27702,3.59461 1.67578,6.92969 1.27703,2.99788 1.58047,4.00282 1.73242,6.32617 0.12171,1.53642 0.43363,3.48613 0.64649,4.31055 0.2434,0.82439 0.42187,1.76823 0.42187,2.10547 0,0.29973 0.48484,1.12001 1.0625,1.83203 0.57771,0.71104 1.06055,1.61481 1.06055,2.06445 0,0.44968 0.39237,1.45689 0.87891,2.28125 1.27706,2.21092 4.41789,9.70613 5.33008,12.81641 1.0642,3.70986 1.548,4.80299 3.06836,6.78906 0.69926,0.9368 2.61707,4.23616 4.22851,7.27148 2.91897,5.50856 3.71197,6.62814 6.63086,9.32617 1.27703,1.19922 1.76035,1.42579 2.97656,1.42579 0.82095,0 1.57677,0.14854 1.66797,0.37304 0.79064,1.57382 8.09225,-1.64914 14.50781,-6.4082 8.20944,-6.10813 9.03278,-6.89196 8.45508,-8.16602 -0.27364,-0.63704 -0.6089,-0.78711 -1.85547,-0.78711 -0.85145,0 -1.76035,0.14855 -2.06445,0.37305 -0.30387,0.18716 -1.79894,0.44783 -3.34961,0.59766 -2.7061,0.26233 -2.83252,0.22748 -3.62305,-0.67188 -0.45611,-0.52454 -2.15497,-2.17582 -3.79687,-3.67383 -1.64187,-1.49895 -3.09791,-3.03152 -3.25,-3.40625 -0.18255,-0.37481 -0.31445,-1.35287 -0.31445,-2.21484 0,-1.31153 -0.2344,-1.94808 -1.35938,-3.67187 -3.52698,-5.39612 -4.13518,-6.56399 -5.83789,-11.13477 -3.92228,-10.41755 -4.0828,-10.86467 -6.15039,-20.98242 -0.15232,-0.63704 -0.66592,-2.13834 -1.15234,-3.375 -0.79064,-1.9111 -0.93671,-2.84353 -1.11915,-6.29102 -0.21314,-4.2345 -0.3398,-4.79772 -1.89062,-8.13281 -0.7906,-1.72378 -0.9672,-2.58387 -1.11914,-5.20703 -0.15232,-2.69803 -0.27197,-3.33458 -1.0625,-4.6836 -0.66901,-1.12411 -1.18661,-2.88718 -1.85547,-6.25976 -3.13179,-15.73875 -3.07617,-15.39609 -3.07617,-17.04492 0,-0.74954 -0.39237,-2.48107 -0.87891,-3.83008 -0.66897,-1.91116 -0.91826,-3.37224 -1.07031,-6.07031 -0.1217,-1.94863 -0.54731,-4.97897 -0.91211,-6.74024 -1.21625,-5.4336 -4.16369,-15.47198 -4.92383,-16.74609 -0.82095,-1.34907 -1.45556,-3.04808 -3.1582,-8.55664 -1.85477,-5.99569 -3.52581,-9.17477 -7.47852,-14.3086 -3.40539,-4.45931 -3.55917,-4.60937 -4.77539,-4.60937 -0.69929,-0.0385 -2.03902,-0.36725 -2.95117,-0.7793 -1.07183,-0.49178 -1.78222,-0.79795 -2.44726,-0.85937 z m 305.83988,6.00586 c 0.1696,-0.0128 0.2903,-0.0107 0.3515,0.01 1.823,0.74533 2.5896,0.82237 5.3555,0.59766 l 3.1328,-0.22461 2.6113,1.65039 2.6446,1.65039 0.9453,-1.42578 c 1.2162,-1.76063 2.5166,-1.88512 4.3105,-0.38281 1.8244,1.53659 4.3591,2.93807 6.2442,3.5 1.8851,0.56101 5.1004,2.57977 6.6816,4.22851 3.1925,3.33513 7.1519,8.09486 8.125,9.78125 0.6082,1.04925 1.7594,2.76981 2.5195,3.78125 1.0946,1.46138 1.576,2.54382 2.1231,4.64258 0.4253,1.7237 1.0042,3.15147 1.582,3.86328 0.9123,1.12412 2.1292,4.12511 2.0078,4.94922 -0.03,0.225 0.086,0.8271 0.2735,1.35156 0.8507,2.51072 1.1337,3.77592 1.3769,6.54883 0.152,1.64891 0.428,3.30347 0.5801,3.64063 0.1519,0.37481 0.2656,0.86119 0.2656,1.08593 0,0.22451 0.2704,0.86735 0.6055,1.4668 0.4869,0.8244 0.5851,1.45957 0.4629,3.4082 -0.2128,3.82226 -0.7311,9.02748 -1.0352,10.26368 -0.1519,0.5997 -0.3744,2.28512 -0.4648,3.74609 -0.2733,3.82225 -0.3271,4.12218 -1.5742,8.43164 -1.0339,3.63477 -1.7689,6.67272 -2.1641,8.99609 -0.058,0.52455 -0.3855,1.61335 -0.6895,2.4375 -1.277,3.44749 -1.8275,5.06252 -3.0742,8.77149 -0.6996,2.17337 -1.9457,5.20432 -2.7363,6.74023 -0.8207,1.57447 -1.4922,2.99624 -1.4922,3.1836 0,0.22499 -0.2462,0.71503 -0.5801,1.12695 -0.7602,1.01165 -4.5859,8.05704 -4.5859,8.43164 0,0.33698 -3.2591,4.75715 -7.668,10.45313 -1.8243,2.32333 -3.4563,4.64581 -3.6386,5.13281 -0.183,0.52445 -0.4589,0.9375 -0.5801,0.9375 -0.152,0 -1.9512,1.39332 -3.9883,3.11719 -6.2332,5.17133 -11.6156,8.8789 -12.8926,8.8789 -0.3647,0 -0.9719,0.29753 -1.3672,0.67188 -0.3955,0.41302 -1.4348,1.30182 -2.2558,2.01367 -1.5203,1.31103 -1.5379,1.31925 -3.6055,1.01953 -1.3378,-0.21815 -2.559,-0.18649 -3.3496,0.0762 -0.6688,0.22451 -2.3439,0.56665 -3.6816,0.75391 -1.3378,0.14895 -2.9486,0.5213 -3.5567,0.74609 -0.6081,0.22451 -1.6979,0.34664 -2.4277,0.23242 -1.7939,-0.26233 -4.7392,-1.01375 -5.8946,-1.42578 -0.5168,-0.19064 -2.4403,-0.34179 -4.2949,-0.34179 -3.5878,0 -3.6164,0.003 -5.8359,-2.54493 -1.2771,-1.46254 -2.738,-2.21527 -5.961,-3.00195 l -3.0429,-0.74609 -2.24807,-3.04102 c -2.31001,-3.14746 -2.94728,-4.26177 -7.66015,-13.70508 -2.73645,-5.50847 -2.79905,-5.70101 -2.95118,-8.32422 L 988.73242,330.99023 990,330.19336 c 0.76022,-0.48712 2.70565,-1.03721 4.83398,-1.44922 3.04055,-0.52493 3.73789,-0.80068 4.92383,-1.84961 1.30749,-1.1617 4.05399,-2.01893 9.16209,-2.91797 2.3107,-0.37481 2.3386,-0.7097 0.6055,-5.28125 -0.8516,-2.24847 -1.7627,-4.68598 -2.0059,-5.47265 -0.3647,-1.08708 -0.788,-1.57243 -1.8828,-2.17188 -1.3683,-0.74607 -1.6745,-0.77774 -4.2285,-0.14062 -0.7295,0.18803 -1.3939,-0.11793 -3.33984,-1.54102 -1.3378,-0.93689 -3.04654,-2.13768 -3.80664,-2.66211 -0.76021,-0.52513 -1.79557,-1.34931 -2.3125,-1.79883 -0.48695,-0.48711 -1.43097,-1.12191 -2.03906,-1.45898 -0.79004,-0.37482 -1.11914,-0.78182 -1.11914,-1.34375 0,-0.41263 -0.30632,-1.28145 -0.67188,-1.88086 -0.54754,-0.93718 -0.60399,-1.27491 -0.29883,-1.94922 0.18292,-0.48721 0.41542,-1.68192 0.50586,-2.69336 0.0964,-1.01187 0.51662,-3.49087 0.91211,-5.43945 0.4263,-1.98628 0.76367,-3.89847 0.76367,-4.31055 0,-0.37481 0.61459,-1.5292 1.375,-2.57812 1.97639,-2.66051 3.39313,-5.85041 4.60938,-10.19727 0.97297,-3.52241 1.19303,-3.93539 3.29101,-6.55859 1.21616,-1.53625 2.49386,-3.48644 2.82816,-4.31055 0.3349,-0.8243 1.5244,-3.14251 2.6191,-5.16602 1.0946,-2.06116 2.0059,-3.85765 2.0059,-4.04492 0,-0.44968 5.9276,-9.49119 7.7519,-11.81445 0.8516,-1.04936 2.0979,-2.27343 2.7364,-2.68555 1.3985,-0.86183 2.5536,-2.33533 5.4726,-6.83203 3.1317,-4.83403 6.5341,-9.1024 8.1152,-10.26367 2.3108,-1.64874 6.293,-3.632 8.7559,-4.34375 v -0.008 c 0.935,-0.27981 1.8694,-0.46134 2.3809,-0.5 z m -689.84574,10.26562 c 0.45997,-0.0847 0.60721,0.18651 0.45507,0.80469 -0.48644,2.06115 -1.54233,3.64155 -6.86328,10.38672 -3.80066,4.79655 -5.84469,7.15625 -6.30078,7.15625 -0.79043,0 -1.58398,-0.94205 -1.58398,-1.91602 0,-1.38641 1.18776,-4.49029 2.03906,-5.31445 0.45613,-0.44968 2.03574,-2.09852 3.46484,-3.67188 3.25338,-3.52147 4.20399,-4.42494 6.48438,-6.11132 1.07937,-0.80535 1.84478,-1.24977 2.30469,-1.33399 z m 657.48824,5.25586 v 0 c 0.4032,-0.0174 0.8762,0.0503 1.2109,0.19922 0.2744,0.11248 0.4883,0.55872 0.4883,0.9707 0,0.8244 -1.7964,4.42303 -3.043,6.10938 -2.8277,3.78481 -4.7444,6.60122 -5.5957,8.25 -0.5475,1.01166 -2.2434,3.41111 -3.76363,5.32226 -1.55074,1.87366 -2.80274,3.66675 -2.80274,4.00391 0,1.34906 -1.33788,4.7564 -2.46289,6.36719 -0.91132,1.27397 -1.55437,2.84933 -2.52734,6.10937 -1.42911,4.83407 -1.66847,5.47724 -3.15821,8.02539 -0.54754,0.9369 -1.82196,4.04072 -2.79492,6.88868 -1.70271,4.90914 -3.19136,7.67773 -4.10351,7.67773 -1.03381,0 -1.3422,-1.31153 -1.70704,-7.64453 -0.39548,-6.96995 -0.27688,-10.14945 0.42188,-11.49805 0.2434,-0.48779 0.54628,-1.42408 0.63672,-2.02344 0.12208,-0.63704 1.25746,-2.814 2.5039,-4.875 2.21964,-3.59732 3.51547,-5.77317 6.25196,-10.41992 0.72942,-1.2364 2.01499,-2.99312 2.83594,-3.92969 0.85164,-0.97426 2.03858,-2.73455 2.58593,-3.9707 1.15544,-2.39831 2.21472,-3.55919 9.45115,-10.5293 2.5822,-2.47106 4.7411,-4.60979 4.7754,-4.75976 0.058,-0.17186 0.3917,-0.25862 0.7949,-0.27344 z m -525.44723,17.24805 c 0.22695,-0.004 0.46164,6.7e-4 0.69727,0.0137 0.9425,0.051 1.90221,0.23279 2.38867,0.51367 1.33788,0.78687 2.30469,2.99957 2.30469,5.24805 0,1.94858 0.039,1.90724 -4.31055,6.4414 -1.79388,1.8362 -2.49006,2.35919 -2.97656,2.17188 -0.66898,-0.26234 -0.68033,-0.30372 -1.41016,-5.4375 -0.27364,-1.94863 -0.57718,-4.00645 -0.63867,-4.56836 -0.12208,-0.78706 0.0941,-1.38085 0.85352,-2.42969 0.54725,-0.78725 1.18726,-1.53698 1.46093,-1.68359 0.34212,-0.16838 0.95003,-0.25722 1.63086,-0.26953 z M 588.5,252.5957 l 2.22266,0.18164 c 1.24664,0.11248 2.616,0.49405 3.10156,0.83008 1.58094,1.16187 2.33976,4.76026 1.45898,7.1211 -0.21278,0.52454 -1.06475,1.53434 -1.91601,2.24609 -0.82092,0.67447 -2.16057,1.91218 -2.95117,2.73633 -1.06421,1.08632 -1.61164,1.39139 -2.18946,1.27734 -0.42561,-0.11248 -0.78711,-0.31046 -0.78711,-0.45703 0,-0.11248 -0.2146,-1.83267 -0.48828,-3.78125 -0.91219,-7.04549 -0.94028,-6.48105 0.36328,-8.42969 z m 130.92773,14.5625 c 2.01851,0.0735 7.33853,0.79697 8.90821,1.25586 0.97304,0.29976 1.94406,0.93163 2.88672,1.98047 0.7601,0.8244 2.12327,2.18207 2.97461,2.96875 1.97695,1.79874 2.08203,2.20194 2.08203,10.3711 0,5.77087 -0.0639,6.26152 -0.67188,7.53515 -0.39519,0.74934 -0.70508,1.95464 -0.70508,2.62891 0,1.5363 -1.18189,5.64766 -2.24609,7.93359 -0.4258,0.89975 -0.79687,1.88094 -0.79687,2.17969 0,0.29975 -0.41851,1.27056 -0.93555,2.20703 -0.48654,0.93689 -1.7379,3.67789 -2.71094,6.07617 -3.07098,7.41975 -4.86135,10.56503 -8.44922,14.72461 -1.27702,1.49891 -3.49471,4.3847 -4.92383,6.4082 -4.01359,5.65849 -8.5216,11.35332 -10.07226,12.62696 -0.79064,0.67495 -1.88249,1.64674 -2.42969,2.24609 -5.41213,5.47117 -11.4258,9.89732 -15.01367,11.0586 -0.82091,0.26231 -1.7341,0.74526 -2.00781,1.04492 -0.42562,0.48711 -4.16652,2.24686 -8.33203,3.9707 -1.73307,0.67438 -9.52467,1.01472 -12.16993,0.49023 -2.34123,-0.48778 -4.70898,-1.53578 -4.70898,-2.09765 0,-0.14895 -0.48289,-0.6041 -1.06055,-1.05274 -0.82095,-0.56217 -1.31356,-1.41816 -1.98242,-3.21679 -0.66901,-1.83669 -1.15186,-2.66275 -1.97266,-3.22461 -0.7906,-0.59961 -1.39693,-1.53812 -2.1875,-3.44922 -1.00339,-2.47324 -1.06662,-2.95453 -1.21875,-7.03906 -0.2434,-6.22057 0.24539,-9.59948 1.76563,-12.63477 1.12429,-2.24847 1.17578,-2.54939 1.17578,-5.32227 0,-2.88444 0.0398,-3.0348 1.43555,-5.69531 0.76032,-1.4989 1.79276,-3.29643 2.27929,-3.9707 0.48643,-0.67467 1.52479,-2.88453 2.34571,-4.9082 0.82095,-2.02351 1.82239,-3.93239 2.24804,-4.26953 0.42478,-0.33699 1.00521,-1.50426 1.40039,-2.92774 0.63859,-2.09847 1.12385,-2.85044 5.01563,-7.60937 7.29728,-8.88123 10.12692,-11.65215 13.28906,-12.92579 1.30738,-0.52522 2.33903,-1.23251 2.97656,-2.05664 0.54728,-0.71248 1.5488,-1.57696 2.24805,-1.91406 0.69929,-0.37481 1.973,-1.04631 2.79297,-1.5332 1.85477,-1.04926 5.87553,-3.18506 9.12891,-4.83399 7.57092,-3.86019 10.03246,-5.02611 11.33984,-5.36328 1.67229,-0.45006 6.56561,-1.50381 7.66016,-1.65039 0.13304,-0.0186 0.35422,-0.0222 0.64257,-0.0117 z m -69.18945,45.49219 c 0.17875,-0.0201 0.38004,-0.0109 0.62305,0.0176 2.55409,0.26234 2.18977,1.7198 -2.3711,9.25195 -2.3108,3.82116 -3.49542,6.18493 -4.10351,8.0586 -0.42565,1.46154 -1.33407,3.60083 -1.97266,4.7246 -1.18571,2.13612 -4.92933,13.37414 -5.26367,15.88477 -0.1217,0.93699 -0.60096,1.95732 -1.36133,2.96875 -1.09459,1.49907 -1.28006,1.57044 -3.34765,1.75781 -2.15879,0.18728 -2.19163,0.18265 -3.04297,-0.97851 -0.45615,-0.67448 -0.99827,-2.05976 -1.21094,-3.1836 -0.21317,-1.12459 -0.51964,-2.32945 -0.67188,-2.70312 -0.18253,-0.41215 -0.12065,-1.27194 0.1836,-2.4707 0.54735,-2.32336 0.96712,-3.30044 2.03125,-4.79883 0.94254,-1.34906 1.49219,-3.33305 1.49219,-5.43164 0,-1.01231 0.24839,-1.7576 0.88672,-2.61914 0.45613,-0.67448 1.30034,-2.25402 1.84765,-3.49024 1.64187,-3.63541 2.12268,-4.34065 3.58203,-5.08984 0.88177,-0.48711 2.47055,-2.06829 4.29492,-4.2793 1.91554,-2.32335 3.40396,-3.78253 4.37696,-4.26953 0.82091,-0.44968 1.91847,-1.38162 2.49609,-2.13086 0.66138,-0.83803 0.99501,-1.15858 1.53125,-1.21875 z m 42.08399,105.39649 v 0.002 c -3.57166,-10e-4 -6.81967,0.0254 -9.25977,0.0996 -10.45939,0.29975 -46.61128,1.31539 -59.89844,1.61523 -8.36145,0.22499 -18.60982,0.5685 -22.77539,0.75586 -4.16553,0.22499 -11.49197,0.55876 -16.26562,0.74609 -4.77362,0.18756 -10.4534,0.51567 -12.64258,0.70313 -2.15875,0.22499 -6.15542,0.5685 -8.83008,0.75586 -4.34801,0.33748 -5.07274,0.48457 -6.98828,1.45898 -1.15544,0.63704 -2.88469,1.24275 -3.79688,1.39258 -0.91215,0.11201 -3.04446,0.44634 -4.71679,0.7461 -1.67225,0.29975 -4.88868,0.6336 -7.13867,0.74609 -2.24999,0.14896 -5.81023,0.48726 -7.90821,0.78711 -2.09798,0.29975 -9.05792,0.79389 -15.5039,1.09375 -6.44591,0.29975 -15.87627,0.85723 -20.98438,1.26953 -5.10811,0.44968 -12.34493,0.93535 -16.11523,1.16016 -3.77027,0.22498 -9.24322,0.56654 -12.16211,0.7539 -2.91893,0.22499 -8.11305,0.55874 -11.54883,0.7461 -3.43582,0.22498 -8.55009,0.56068 -11.4082,0.74804 -2.8277,0.18755 -8.17644,0.52912 -11.85547,0.75391 -12.61822,0.67457 -24.3241,1.49824 -27.06055,1.87305 -1.48993,0.22498 -6.08473,0.55873 -10.18945,0.74609 -7.38849,0.33748 -15.54114,0.75066 -29.04102,1.5 -3.83107,0.22498 -10.60771,0.55873 -15.04687,0.74609 -4.43919,0.18717 -8.81245,0.45978 -9.72461,0.57227 -0.91226,0.11201 -3.6535,0.25313 -6.08594,0.36523 -2.43242,0.1125 -6.16627,0.37268 -8.35547,0.59766 -8.96957,0.86183 -12.56474,1.09219 -20.37891,1.4668 -10.45943,0.44968 -14.13225,0.8243 -19.66601,2.02343 -5.07762,1.12431 -5.41211,1.23533 -5.41211,1.94727 0,1.23658 5.37458,3.26417 13.37109,5.02539 2.91892,0.63704 6.69294,1.50193 8.36524,1.91406 1.6723,0.41215 5.31719,0.93541 8.08398,1.16016 4.28715,0.37482 5.63033,0.32542 9.12696,-0.19922 6.14188,-0.93679 16.74989,-2.09166 23.07421,-2.50391 3.10136,-0.18726 9.24832,-0.59835 13.6875,-0.93554 4.4392,-0.29976 11.39722,-0.71271 15.50196,-0.9375 4.10472,-0.18755 10.18663,-0.52892 13.53125,-0.75391 3.34454,-0.18726 10.88288,-0.5213 16.7207,-0.74609 10.55067,-0.41225 14.80974,-0.63432 28.2793,-1.6836 6.81082,-0.52454 12.89328,-0.89659 26.91015,-1.68359 3.77027,-0.22498 8.96447,-0.56655 11.54883,-0.75391 5.80743,-0.44968 20.16094,-1.3484 30.10352,-1.87304 4.10472,-0.22499 10.3985,-0.55874 13.98633,-0.7461 3.58779,-0.22498 10.03623,-0.56654 14.29296,-0.7539 4.25674,-0.22499 10.55052,-0.55874 13.98633,-0.7461 9.30403,-0.56207 19.49013,-1.08978 29.18946,-1.50195 4.77365,-0.22498 9.82096,-0.4501 11.25,-0.5625 5.38178,-0.337 23.56126,-0.93577 38.91601,-1.31055 18.88173,-0.44968 27.49006,-0.67863 34.51367,-0.97851 12.16218,-0.52455 146.39886,-0.33324 155.97657,0.1914 3.52705,0.22499 11.46249,0.56222 17.63476,0.78711 21.37501,0.78697 29.2247,1.16685 36.1875,1.69141 3.86151,0.33748 9.24676,0.74057 12.01367,0.92773 24.2027,1.76127 37.15009,2.92498 47.12305,4.31055 2.24999,0.29956 6.77779,0.90616 10.03125,1.31836 6.05065,0.78687 19.09553,2.69267 22.95703,3.36719 1.18575,0.18755 3.70555,0.59836 5.6211,0.93554 5.04723,0.86184 22.50241,3.93987 25.54296,4.50196 10.64187,2.02354 12.68316,2.43143 24.48046,4.86719 1.6723,0.37479 3.7396,0.78767 4.5606,0.9375 4.8344,0.97425 21.2508,4.83366 23.1054,5.4707 1.0034,0.33747 2.8569,0.90277 4.1035,1.27734 1.2468,0.37482 3.9288,1.23604 5.9356,1.87305 2.0068,0.67466 4.1312,1.34235 4.709,1.49219 0.5773,0.18754 3.1948,1.01734 5.7793,1.84179 2.5844,0.86203 5.5969,1.79687 6.6914,2.09571 1.0947,0.33698 3.219,1.01486 4.709,1.50195 1.5201,0.52455 4.1642,1.34832 5.9277,1.87305 1.7635,0.56217 5.3159,1.64628 7.9004,2.4707 4.4695,1.42397 5.938,1.87188 8.0664,2.39648 0.5167,0.11248 1.3952,0.37523 1.9726,0.5625 1.1453,0.37644 2.6081,0.74381 3.9708,1.13672 0.5205,-0.87357 1.034,-1.75292 1.5507,-2.6289 -5.145,-2.10231 -10.4844,-4.29688 -13.8867,-5.66211 -2.0068,-0.82431 -4.0417,-1.64825 -4.5586,-1.87305 -0.4869,-0.225 -3.5864,-1.53696 -6.8398,-2.96094 -7.0844,-3.07182 -7.6291,-3.29541 -10.9434,-5.05664 -1.4291,-0.74953 -3.4659,-1.80547 -4.5605,-2.33008 -1.0947,-0.52455 -2.2516,-1.0802 -2.586,-1.26757 -0.5475,-0.26234 -4.3196,-1.49964 -8.5156,-2.73633 -0.8199,-0.26232 -1.7294,-0.55948 -1.9726,-0.67188 -0.2434,-0.14944 -0.7931,-0.30157 -1.2188,-0.41406 -0.7602,-0.18717 -8.7011,-2.77658 -11.8633,-3.86328 -2.7365,-0.9368 -6.1348,-2.43392 -7.6855,-3.4082 -1.7636,-1.08675 -15.9631,-4.72291 -23.7774,-6.10938 -1.3377,-0.26232 -3.3155,-0.67872 -4.41012,-0.97852 -1.94586,-0.52452 -7.75433,-1.8246 -10.79493,-2.38671 -3.70945,-0.74954 -9.21271,-1.87859 -10.61133,-2.21485 -0.85162,-0.18726 -2.28436,-0.4833 -3.16601,-0.5957 -0.88146,-0.14896 -2.64481,-0.75987 -3.92188,-1.35938 -1.61147,-0.78696 -3.42968,-1.27571 -6.13476,-1.65039 -6.93256,-0.97437 -14.14269,-2.01746 -16.60547,-2.42968 -1.33788,-0.18727 -4.19563,-0.64111 -6.38477,-0.97852 -2.15882,-0.29966 -6.08743,-0.89644 -8.67187,-1.30859 -12.95267,-1.98608 -14.10024,-2.13601 -22.49219,-2.81055 -3.92232,-0.29975 -9.1164,-0.71251 -11.54883,-0.9375 -5.44255,-0.41225 -18.06702,-1.38815 -21.74609,-1.65039 -1.48993,-0.11201 -4.65585,-0.36733 -6.99609,-0.55469 -2.34127,-0.18726 -6.92826,-0.52892 -10.18164,-0.7539 -3.25342,-0.22499 -7.7813,-0.5685 -10.03125,-0.75586 -8.69598,-0.74857 -29.28656,-2.16545 -34.82032,-2.42774 -5.89867,-0.22498 -26.14347,-0.5213 -56.54883,-0.74609 -27.09114,-0.22499 -31.86194,-0.38678 -38.91601,-1.21094 -3.489,-0.39348 -17.12473,-0.69372 -27.83984,-0.69726 z M 266.23242,522.45117 c -0.17098,0.14385 -0.29406,0.3077 -0.41406,0.5293 0.0155,-0.004 0.051,-0.0197 0.0664,-0.0234 0.006,-0.002 0.28534,-0.10267 0.32226,-0.11719 0.0837,-0.0876 0.25919,-0.28647 0.35742,-0.38867 z"
       inkscape:connector-curvature="0" />
  </g>
</svg>
